HIERARCHY
ROOT Hips
{
	OFFSET 0.000000 0.000000 0.000000 
	CHANNELS 6 Xposition Yposition Zposition Zrotation Yrotation Xrotation
	JOINT LeftUpLeg
	{
		OFFSET 1.363060 -1.794630 0.839290 
		CHANNELS 3 Zrotation Yrotation Xrotation
		JOINT LeftLeg
		{
			OFFSET 2.448110 -6.726130 0.000000 
			CHANNELS 3 Zrotation Yrotation Xrotation
			JOINT LeftFoot
			{
				OFFSET 2.562200 -7.039590 0.000000 
				CHANNELS 3 Zrotation Yrotation Xrotation
				JOINT LeftToeBase
				{
					OFFSET 0.157640 -0.433110 2.322550 
					CHANNELS 3 Zrotation Yrotation Xrotation
					End Site
					{
						OFFSET 0.000000 0.000000 0.000000 
					}
				}
			}
		}
	}
	JOINT RightUpLeg
	{
		OFFSET -1.305520 -1.794630 0.839290 
		CHANNELS 3 Zrotation Yrotation Xrotation
		JOINT RightLeg
		{
			OFFSET -2.542530 -6.985550 0.000000 
			CHANNELS 3 Zrotation Yrotation Xrotation
			JOINT RightFoot
			{
				OFFSET -2.568260 -7.056230 0.000000 
				CHANNELS 3 Zrotation Yrotation Xrotation
				JOINT RightToeBase
				{
					OFFSET -0.164730 -0.452590 2.363150 
					CHANNELS 3 Zrotation Yrotation Xrotation
					End Site
					{
						OFFSET 0.000000 0.000000 0.000000 
					}
				}
			}
		}
	}
	JOINT Spine
	{
		OFFSET 0.028270 2.035590 -0.193380 
		CHANNELS 3 Zrotation Yrotation Xrotation
		JOINT Spine1
		{
			OFFSET 0.056720 2.048850 -0.042750 
			CHANNELS 3 Zrotation Yrotation Xrotation
			JOINT Neck1
			{
				OFFSET -0.054170 1.746240 0.172020 
				CHANNELS 3 Zrotation Yrotation Xrotation
				JOINT Head
				{
					OFFSET 0.104070 1.761360 -0.123970 
					CHANNELS 3 Zrotation Yrotation Xrotation
					End Site
					{
						OFFSET 0.000000 0.000000 0.000000 
					}
				}
			}
			JOINT LeftArm
			{
				OFFSET 3.362410 1.200890 -0.311210 
				CHANNELS 3 Zrotation Yrotation Xrotation
				JOINT LeftForeArm
				{
					OFFSET 4.983000 -0.000000 -0.000000 
					CHANNELS 3 Zrotation Yrotation Xrotation
					JOINT LeftHand
					{
						OFFSET 3.483560 -0.000000 -0.000000 
						CHANNELS 3 Zrotation Yrotation Xrotation
						JOINT LeftHandIndex1
						{
							OFFSET 0.715260 -0.000000 -0.000000 
							CHANNELS 3 Zrotation Yrotation Xrotation
							End Site
							{
								OFFSET 0.000000 0.000000 0.000000 
							}
						}
					}
				}
			}
			JOINT RightArm
			{
				OFFSET -3.136600 1.374050 -0.404650 
				CHANNELS 3 Zrotation Yrotation Xrotation
				JOINT RightForeArm
				{
					OFFSET -5.241900 -0.000000 -0.000000 
					CHANNELS 3 Zrotation Yrotation Xrotation
					JOINT RightHand
					{
						OFFSET -3.444170 -0.000000 -0.000000 
						CHANNELS 3 Zrotation Yrotation Xrotation
						JOINT RightHandIndex1
						{
							OFFSET -0.622530 -0.000000 -0.000000 
							CHANNELS 3 Zrotation Yrotation Xrotation
							End Site
							{
								OFFSET 0.000000 0.000000 0.000000 
							}
						}
					}
				}
			}
		}
	}
}
MOTION
Frames: 18
Frame Time: 0.041667
-0.775475 17.784223 2.237032 0.607399 -2.036250 -0.129803 -6.071437 1.589203 -24.199753 7.054611 16.298837 51.409005 4.062870 -3.700301 0.748741 8.627200 -16.561700 -54.791700 5.833965 -0.322924 -20.593215 -6.642670 -15.412062 48.909608 -5.077674 8.061978 -4.384427 -1.548800 7.855100 -22.274800 -0.312615 0.432472 0.863631 0.162029 0.588939 -10.347125 5.146529 -4.769852 21.998742 1.173500 -1.825700 10.675500 -45.886411 -57.685267 25.601091 31.143356 -30.756300 -11.913388 3.262051 -1.919589 8.130143 -7.125000 0.000000 0.000000 39.840848 55.725225 21.632851 -31.539909 31.546254 -10.874047 1.199487 3.146383 16.983858 7.125000 0.000000 0.000000 
-0.776212 17.781906 2.234399 0.637848 -2.045836 -0.130111 -6.099992 1.594410 -24.218310 7.061876 16.304547 51.435545 4.048632 -3.671303 0.722208 8.653600 -16.579500 -54.884100 5.806985 -0.296956 -20.607478 -6.657291 -15.421846 48.949745 -5.072295 8.043018 -4.420955 -1.561700 7.886300 -22.369400 -0.329760 0.430749 0.856616 0.172333 0.588853 -10.368483 5.205330 -4.764020 22.002603 1.201300 -1.818900 10.678000 -45.842884 -57.660181 25.556194 31.127489 -30.762830 -11.911152 3.263641 -1.914389 8.058313 -7.125000 0.000000 0.000000 39.867664 55.709020 21.629648 -31.616897 31.612988 -10.917842 1.190056 3.146931 16.917951 7.125000 0.000000 0.000000 
-0.777160 17.780327 2.232399 0.633374 -2.041601 -0.122858 -6.090321 1.594418 -24.241193 7.074189 16.312023 51.467498 4.072196 -3.722449 0.704555 8.648500 -16.576100 -54.866400 5.817177 -0.304714 -20.627446 -6.661805 -15.425177 48.967087 -5.074566 8.057906 -4.396917 -1.550200 7.858500 -22.285000 -0.328946 0.430397 0.856942 0.172273 0.588417 -10.375526 5.248081 -4.755268 21.990101 1.220800 -1.811900 10.669600 -45.816095 -57.634200 25.529250 31.138038 -30.789446 -11.922373 3.262289 -1.910562 8.008452 -7.125000 0.000000 0.000000 39.867618 55.704623 21.608010 -31.655519 31.641843 -10.932437 1.189898 3.143109 16.865398 7.125000 0.000000 0.000000 
-0.778423 17.779169 2.230925 0.601782 -2.040081 -0.133352 -6.056955 1.600763 -24.249069 7.087187 16.319111 51.497286 4.093106 -3.765800 0.689406 8.635800 -16.567500 -54.821800 5.854528 -0.309418 -20.631053 -6.668449 -15.429881 48.992553 -5.089201 8.106769 -4.387556 -1.526000 7.799800 -22.107700 -0.308332 0.441674 0.866872 0.171108 0.593139 -10.383511 5.259481 -4.755386 21.997991 1.226700 -1.811200 10.672600 -45.795738 -57.609838 25.531674 31.171236 -30.830619 -11.939996 3.258369 -1.903650 7.973889 -7.125000 0.000000 0.000000 39.857176 55.693471 21.558924 -31.679502 31.659081 -10.934817 1.197090 3.134466 16.799879 7.125000 0.000000 0.000000 
-0.779792 17.778116 2.228292 0.572247 -2.027239 -0.158658 -6.021105 1.572764 -24.242959 7.097938 16.325947 51.525375 4.095531 -3.771969 0.683559 8.638500 -16.569400 -54.831300 5.889800 -0.313855 -20.627070 -6.677259 -15.435675 49.021393 -5.082351 8.081307 -4.449069 -1.551100 7.860600 -22.291600 -0.279406 0.433425 0.862678 0.180361 0.589050 -10.412362 5.247738 -4.746164 21.996370 1.223700 -1.809200 10.663800 -45.775373 -57.569238 25.513403 31.174710 -30.855918 -11.943103 3.255432 -1.896034 7.925747 -7.125000 0.000000 0.000000 39.914585 55.701957 21.581758 -31.742059 31.693485 -10.963547 1.199194 3.131879 16.773151 7.125000 0.000000 0.000000 
-0.781266 17.776115 2.225028 0.548024 -1.994247 -0.165469 -5.987452 1.520654 -24.253165 7.105337 16.331889 51.546171 4.099650 -3.784568 0.694150 8.624100 -16.559700 -54.780900 5.924230 -0.314518 -20.641291 -6.686680 -15.441377 49.053305 -5.064985 8.028351 -4.511295 -1.583300 7.938100 -22.526100 -0.249503 0.405545 0.859763 0.183115 0.568824 -10.392337 5.232753 -4.726289 21.953886 1.226200 -1.807600 10.629800 -45.788351 -57.560311 25.504034 31.159322 -30.844597 -11.930912 3.254811 -1.892199 7.805532 -7.125000 0.000000 0.000000 40.325006 55.799233 21.511265 -31.929855 31.709372 -11.054098 1.228917 3.129092 17.304696 7.125000 0.000000 0.000000 
-0.782319 17.773799 2.224081 0.532419 -1.985482 -0.171311 -5.972189 1.521658 -24.268781 7.112272 16.338535 51.566633 4.087066 -3.758361 0.692882 8.619900 -16.556800 -54.766000 5.947184 -0.284679 -20.640469 -6.695626 -15.445080 49.085695 -5.063674 8.032609 -4.514147 -1.557300 7.875800 -22.337400 -0.234927 0.383943 0.911963 0.168723 0.535883 -10.237272 5.219769 -4.729397 21.933381 1.231100 -1.816900 10.618300 -45.818502 -57.619569 25.514343 31.153816 -30.801393 -11.915878 3.256410 -1.896252 7.725967 -7.125000 0.000000 0.000000 41.435336 56.076079 21.140930 -32.385594 31.707178 -11.261191 1.337060 3.101832 18.917955 7.125000 0.000000 0.000000 
-0.782951 17.772641 2.224818 0.536691 -1.966737 -0.185474 -5.976773 1.535066 -24.261641 7.118486 16.340270 51.586632 4.065467 -3.713653 0.689702 8.638400 -16.569300 -54.830900 5.945542 -0.283913 -20.630899 -6.703948 -15.453736 49.112682 -5.069316 8.051507 -4.517743 -1.532000 7.814500 -22.152100 -0.230867 0.423829 0.906709 0.165838 0.574160 -10.319284 5.208415 -4.757462 21.972655 1.229800 -1.833400 10.643300 -45.958209 -57.658694 25.558065 31.154332 -30.765546 -11.916682 3.258322 -1.913849 7.820729 -7.125000 0.000000 0.000000 40.362677 55.660615 21.459512 -32.115470 31.914190 -11.159974 1.226538 3.110416 17.423557 7.125000 0.000000 0.000000 
-0.783477 17.772746 2.225555 0.548327 -1.961562 -0.193099 -5.985116 1.529172 -24.257912 7.123496 16.342895 51.603886 4.057021 -3.697032 0.679042 8.655900 -16.581100 -54.892200 5.935770 -0.293100 -20.628782 -6.711504 -15.459253 49.131142 -5.068980 8.042878 -4.555394 -1.543000 7.841100 -22.232600 -0.221699 0.430674 0.909124 0.178768 0.585532 -10.341202 5.234971 -4.765572 22.015482 1.248200 -1.838000 10.673000 -46.032692 -57.664216 25.510156 31.154831 -30.760901 -11.935647 3.261553 -1.931188 7.983947 -7.125000 0.000000 0.000000 39.988951 55.502877 21.620529 -32.056807 32.030756 -11.145445 1.175882 3.113949 16.931021 7.125000 0.000000 0.000000 
-0.784635 17.772430 2.225765 0.526054 -1.966420 -0.194308 -5.958952 1.537068 -24.263894 7.132654 16.347283 51.622625 4.081633 -3.747325 0.663174 8.650200 -16.577300 -54.872200 5.963194 -0.278233 -20.629102 -6.716661 -15.463432 49.149253 -5.073807 8.053903 -4.588229 -1.538400 7.830000 -22.199100 -0.192854 0.433806 0.906917 0.186708 0.587766 -10.336841 5.248534 -4.765494 22.021164 1.261300 -1.841000 10.681000 -46.071503 -57.644231 25.499170 31.148136 -30.763415 -11.939669 3.264907 -1.929383 8.048071 -7.125000 0.000000 0.000000 39.983190 55.461661 21.698556 -32.113109 32.103992 -11.183561 1.155992 3.117947 16.867207 7.125000 0.000000 0.000000 
-0.786215 17.771693 2.224923 0.472319 -1.951444 -0.205691 -5.899160 1.537150 -24.263465 7.141710 16.351307 51.637695 4.099608 -3.783776 0.668327 8.650200 -16.577300 -54.872300 6.026377 -0.295022 -20.634401 -6.722793 -15.468145 49.175397 -5.073874 8.056214 -4.619467 -1.535500 7.823000 -22.177800 -0.181738 0.417561 0.945636 0.151446 0.573984 -10.307758 5.172143 -4.752782 21.916457 1.223800 -1.842000 10.626400 -45.964540 -57.571299 25.431474 31.110832 -30.776553 -11.920167 3.264178 -1.912939 7.995966 -7.125000 0.000000 0.000000 40.003426 55.487310 21.758541 -32.153565 32.129606 -11.212889 1.142086 3.127685 16.785472 7.125000 0.000000 0.000000 
-0.787268 17.770008 2.223660 0.495835 -1.931915 -0.226213 -5.917236 1.519462 -24.258595 7.146152 16.354828 51.658317 4.084342 -3.757018 0.674690 8.661800 -16.585100 -54.913000 6.009431 -0.322682 -20.640755 -6.734942 -15.475659 49.207336 -5.067589 8.033264 -4.651986 -1.549600 7.857200 -22.281200 -0.165431 0.390011 0.960925 0.176990 0.564551 -10.310034 5.011652 -4.710922 21.793879 1.149800 -1.836000 10.551700 -45.924349 -57.512273 25.345080 31.101125 -30.796960 -11.915055 3.258731 -1.906901 8.018062 -7.125000 0.000000 0.000000 39.999297 55.510507 21.857858 -32.130246 32.107321 -11.199724 1.141233 3.131254 16.748754 7.125000 0.000000 0.000000 
-0.788005 17.767060 2.222607 0.590132 -1.924919 -0.240163 -6.008491 1.509307 -24.260822 7.148683 16.358145 51.684681 4.078865 -3.754801 0.662651 8.658800 -16.583100 -54.902600 5.915856 -0.323884 -20.647045 -6.752411 -15.486275 49.244740 -5.080865 8.065525 -4.646076 -1.546700 7.850000 -22.259500 -0.119031 0.396872 0.857115 0.293346 0.586707 -10.422686 4.881091 -4.692457 21.775323 1.096400 -1.840400 10.525100 -46.167138 -57.549864 25.461104 31.151745 -30.795521 -11.934918 3.253224 -1.922241 8.122631 -7.125000 0.000000 0.000000 39.984693 55.417141 21.972137 -32.094198 32.128175 -11.178881 1.138221 3.122532 16.757233 7.125000 0.000000 0.000000 
-0.789268 17.765376 2.222291 0.652620 -1.913837 -0.234614 -6.071640 1.502793 -24.271925 7.151032 16.361434 51.703935 4.062827 -3.723794 0.635026 8.667700 -16.589000 -54.933600 5.858179 -0.337763 -20.671608 -6.770361 -15.498214 49.289392 -5.088711 8.085862 -4.646016 -1.554600 7.869100 -22.317200 -0.090188 0.406776 0.713744 0.371234 0.604774 -10.561185 4.855938 -4.713651 21.815323 1.087100 -1.853600 10.532900 -46.416199 -57.569286 25.626180 31.193213 -30.804849 -11.957905 3.249904 -1.935177 8.169586 -7.125000 0.000000 0.000000 40.029393 55.321511 22.097031 -32.098921 32.171328 -11.179752 1.136759 3.112475 16.753916 7.125000 0.000000 0.000000 
-0.790216 17.764849 2.223133 0.683386 -1.916010 -0.224312 -6.102939 1.492240 -24.280106 7.155136 16.364236 51.719798 4.051185 -3.697742 0.592733 8.677900 -16.595900 -54.969400 5.836170 -0.350044 -20.698742 -6.786474 -15.508741 49.334016 -5.079362 8.057859 -4.674399 -1.574300 7.916400 -22.460600 -0.154584 0.386801 0.805506 0.319174 0.587393 -10.455598 4.940385 -4.736345 21.796134 1.115600 -1.853600 10.536800 -46.258551 -57.511449 25.467476 31.181203 -30.838829 -11.969553 3.249778 -1.933155 8.175340 -7.125000 0.000000 0.000000 39.998926 55.378247 22.060364 -32.120372 32.163727 -11.186274 1.136845 3.116199 16.761759 7.125000 0.000000 0.000000 
-0.790953 17.764217 2.223554 0.683001 -1.929529 -0.221235 -6.098030 1.490277 -24.285750 7.160575 16.366393 51.732760 4.081371 -3.764571 0.594890 8.651600 -16.578200 -54.877300 5.842981 -0.337128 -20.709484 -6.798038 -15.516503 49.370846 -5.082048 8.070774 -4.679138 -1.560200 7.882600 -22.358000 -0.213819 0.372594 0.905423 0.250799 0.569614 -10.347987 5.028861 -4.738293 21.775278 1.147800 -1.843900 10.540400 -46.076318 -57.457726 25.318538 31.172336 -30.875107 -11.978718 3.247739 -1.930073 8.137536 -7.125000 0.000000 0.000000 39.986461 55.428370 21.994072 -32.168286 32.173558 -11.205455 1.129756 3.120935 16.786188 7.125000 0.000000 0.000000 
-0.791900 17.762427 2.223554 0.660526 -1.927899 -0.224540 -6.069130 1.502660 -24.293636 7.167360 16.369391 51.746146 4.101551 -3.808520 0.607847 8.644700 -16.573600 -54.853200 5.871347 -0.318330 -20.709160 -6.806270 -15.522538 49.402142 -5.090528 8.103306 -4.674318 -1.532000 7.814400 -22.151800 -0.205469 0.369345 0.930904 0.247515 0.566095 -10.318548 5.046675 -4.727861 21.734547 1.154900 -1.837900 10.522200 -46.031364 -57.435009 25.314942 31.190976 -30.904814 -11.987794 3.242003 -1.928314 8.024675 -7.125000 0.000000 0.000000 39.996961 55.414564 21.965710 -32.214571 32.210820 -11.228242 1.126512 3.118786 16.807667 7.125000 0.000000 0.000000 
-0.792637 17.760216 2.224186 0.672091 -1.930827 -0.239206 -6.077248 1.519444 -24.289622 7.173530 16.372827 51.763788 4.098392 -3.800065 0.581439 8.668800 -16.589800 -54.937400 5.863355 -0.306615 -20.699547 -6.813881 -15.527379 49.424995 -5.095387 8.119473 -4.674404 -1.521800 7.789500 -22.076500 -0.227278 0.368820 0.971595 0.231342 0.563366 -10.280904 5.063715 -4.729257 21.685067 1.159300 -1.837100 10.499500 -45.984863 -57.421598 25.301332 31.209384 -30.928206 -11.994475 3.236825 -1.926269 7.944912 -7.125000 0.000000 0.000000 40.004083 55.437343 21.912815 -32.214530 32.199208 -11.232908 1.136398 3.119236 16.862454 7.125000 0.000000 0.000000 
